<?xml version="1.0" standalone="no"?>
<!DOCTYPE svg PUBLIC "-//W3C//DTD SVG 20010904//EN"
 "http://www.w3.org/TR/2001/REC-SVG-20010904/DTD/svg10.dtd">
<svg version="1.0" xmlns="http://www.w3.org/2000/svg"
 width="96.000000pt" height="96.000000pt" viewBox="0 0 96.000000 96.000000"
 preserveAspectRatio="xMidYMid meet">

<g transform="translate(0.000000,96.000000) scale(0.100000,-0.100000)"
fill="#000000" stroke="none">
<path d="M437 653 c-16 -3 -45 -21 -66 -42 -42 -42 -56 -90 -41 -141 l9 -31
-72 3 c-68 3 -72 4 -81 31 -7 18 -6 41 1 69 10 36 9 44 -5 55 -24 18 -28 16
-42 -18 -14 -33 -19 -193 -8 -221 7 -17 33 -18 347 -18 187 0 342 4 345 8 3 5
8 28 12 50 l7 42 -121 0 -120 0 9 35 c12 43 -2 102 -32 134 -23 24 -79 52
-101 50 -7 -1 -26 -4 -41 -6z m124 -52 c34 -34 39 -45 39 -84 0 -78 2 -77
-130 -77 -132 0 -130 -1 -130 77 0 39 5 50 39 84 35 35 44 39 91 39 47 0 56
-4 91 -39z"/>
<path d="M360 160 c0 -19 7 -20 120 -20 113 0 120 1 120 20 0 19 -7 20 -120
20 -113 0 -120 -1 -120 -20z"/>
</g>
</svg>
